<svg xmlns="http://www.w3.org/2000/svg" xmlns:xlink="http://www.w3.org/1999/xlink" width="364" height="152"><defs><path id="a" d="M0 0h110.345v148.4H0z"/></defs><g fill="none" fill-rule="evenodd"><path fill="#060318" d="M339.95 45.708c0-2.153.575-3.929 1.675-5.355a11.197 11.197 0 014.055-3.227c1.551-.727 3.252-1.102 5.127-1.102 1.854 0 3.553.375 5.131 1.102 1.552.75 2.852 1.801 3.878 3.227 1.026 1.426 1.552 3.202 1.552 5.355 0 2.727-1.126 4.828-3.378 6.305-2.251 1.476-4.73 2.227-7.406 2.276-2.703.051-5.156-.651-7.407-2.051-2.252-1.426-3.328-3.603-3.227-6.53m2.502 17.89l16.989-.151c.101 7.332.249 14.212.45 20.668.2 6.455.449 12.91.726 19.366.3 6.43.65 13.061 1.026 19.867.4 6.78.926 14.237 1.625 22.343l-20.091 1.026-.725-83.119m-48.11 87.824c-.074-2.753-.25-6.882-.5-12.411-.252-5.504-.576-11.785-1.027-18.816-.449-7.056-.924-14.537-1.477-22.444a2543.385 2543.385 0 00-1.674-23.319c-.301-3.903-.601-8.183-.953-12.812a162.576 162.576 0 01-.449-13.936c.05-4.629.376-9.182.951-13.636.6-4.454 1.677-8.483 3.227-12.085 1.576-3.628 3.728-6.657 6.456-9.083 2.753-2.452 6.255-4.079 10.558-4.854 3.129-.575 6.156-.575 9.085 0 2.926.6 5.579 1.802 7.93 3.677 2.326 1.853 4.304 4.355 5.856 7.533 1.576 3.177 2.551 7.03 2.926 11.509l-13.487 5.43c-1.076-5.48-2.226-9.184-3.452-11.135-1.2-1.951-3.102-2.602-5.629-1.902-1.753.475-3.204 1.827-4.329 4.028-1.127 2.203-1.951 4.855-2.502 7.982-.525 3.128-.901 6.581-1.076 10.335-.2 3.778-.225 7.456-.076 11.084.126 3.603.326 6.981.577 10.109.249 3.126.524 5.654.8 7.63 1.076.076 2.703.076 4.853 0 2.153-.099 4.529-.3 7.182-.6 2.628-.301 5.355-.625 8.133-1.026 2.777-.4 5.353-.876 7.681-1.477v18.191c-2.328.201-4.806.3-7.383.3h-14.085c-2.002 0-3.578.1-4.754.275 0 .601.075 1.977.2 4.129.149 2.127.375 4.854.676 8.132.3 3.277.624 6.93 1.024 10.984.375 4.053.827 8.182 1.326 12.386a863.835 863.835 0 001.528 12.46c.549 4.103 1.101 7.831 1.701 11.159l-19.817 2.203m-53.836 0c-.074-2.753-.249-6.882-.499-12.411-.251-5.504-.575-11.785-1.026-18.816-.45-7.056-.925-14.537-1.477-22.444a2615.827 2615.827 0 00-1.675-23.319c-.3-3.903-.602-8.183-.952-12.812-.349-4.653-.5-9.283-.45-13.936.05-4.629.376-9.182.95-13.636.602-4.454 1.678-8.483 3.229-12.085 1.576-3.628 3.728-6.657 6.455-9.083 2.752-2.452 6.256-4.079 10.559-4.854 3.128-.575 6.155-.575 9.083 0 2.927.6 5.58 1.802 7.932 3.677 2.326 1.853 4.303 4.355 5.855 7.533 1.575 3.177 2.552 7.03 2.927 11.509l-13.487 5.43c-1.076-5.48-2.226-9.184-3.453-11.135-1.2-1.951-3.102-2.602-5.629-1.902-1.752.475-3.203 1.827-4.328 4.028-1.127 2.203-1.952 4.855-2.502 7.982-.525 3.128-.902 6.581-1.078 10.335a118.077 118.077 0 00-.074 11.084c.125 3.603.326 6.981.576 10.109.25 3.126.525 5.654.8 7.63 1.076.076 2.702.076 4.854 0 2.153-.099 4.529-.3 7.182-.6a278.3 278.3 0 008.131-1.026c2.778-.4 5.354-.876 7.681-1.477v18.191a86.2 86.2 0 01-7.381.3h-14.087c-2.001 0-3.577.1-4.754.275 0 .601.076 1.977.201 4.129.15 2.127.375 4.854.676 8.132.3 3.277.625 6.93 1.026 10.984.375 4.053.825 8.182 1.325 12.386a850.132 850.132 0 001.526 12.46c.551 4.103 1.101 7.831 1.703 11.159l-19.819 2.203m-30.224-12.611c-5.981 4.103-11.76 6.305-17.39 6.58-5.604.3-10.585-.9-14.862-3.578-4.304-2.702-7.732-6.706-10.284-12.035-2.527-5.33-3.752-11.56-3.652-18.69.098-5.555.95-10.385 2.552-14.437 1.626-4.055 3.752-7.483 6.378-10.26 2.652-2.776 5.605-4.954 8.883-6.53 3.279-1.551 6.607-2.602 9.959-3.153 3.379-.525 6.68-.6 9.909-.225 3.227.401 6.054 1.176 8.507 2.352 0-2.928-.301-5.68-.875-8.281-.601-2.577-1.402-4.879-2.428-6.881-1.026-2.002-2.251-3.654-3.678-4.93-1.402-1.251-3.003-2.051-4.755-2.327-1.951-.3-4.053-.2-6.304.276a29.352 29.352 0 00-6.531 2.276 29.88 29.88 0 00-5.78 3.679 22.375 22.375 0 00-4.403 4.603l-9.684-10.258c1.852-2.627 4.18-4.979 6.982-7.032a52.792 52.792 0 018.856-5.279c3.128-1.476 6.256-2.552 9.384-3.227 3.128-.676 6.005-.976 8.657-.876 6.155.3 11.033 1.977 14.662 5.054 3.604 3.078 6.331 7.131 8.132 12.161 1.801 5.054 2.927 10.883 3.378 17.539.425 6.631.549 13.661.351 21.093a826.03 826.03 0 00-.201 13.711 464.95 464.95 0 00.049 13.212c.101 4.228.276 8.256.527 12.009.251 3.754.598 7.156 1.101 10.184l-17.44-.15v-6.58zm-30.801-24.345a23.212 23.212 0 002.277 8.657c1.326 2.727 3.201 4.679 5.655 5.855 2.425 1.175 5.504 1.301 9.232.375 3.704-.927 8.107-3.553 13.186-7.858-.1-4.678-.075-9.482.076-14.361.15-4.88.275-9.033.375-12.461-4.205-1.751-8.233-2.651-12.111-2.702-3.852-.05-7.231.75-10.108 2.402-2.877 1.677-5.129 4.179-6.756 7.557-1.601 3.377-2.201 7.555-1.826 12.536zM87.084 45.708c0-2.153.577-3.929 1.677-5.355a11.211 11.211 0 014.054-3.227c1.552-.727 3.253-1.102 5.129-1.102 1.852 0 3.553.375 5.129 1.102 1.552.75 2.853 1.801 3.879 3.227 1.026 1.426 1.55 3.202 1.55 5.355 0 2.727-1.125 4.828-3.377 6.305-2.251 1.476-4.728 2.227-7.406 2.276-2.702.051-5.156-.651-7.406-2.051-2.252-1.426-3.328-3.603-3.229-6.53"/><g transform="translate(.06 .845)"><mask id="b" fill="#fff"><use xlink:href="#a"/></mask><path fill="#060318" d="M89.526 62.753l16.991-.151c.099 7.332.25 14.212.449 20.668.201 6.455.451 12.91.726 19.366.301 6.43.651 13.061 1.026 19.867.401 6.78.926 14.237 1.627 22.343l-20.092 1.026-.727-83.119m-49.547 85.621c-5.755-.2-10.859-1.701-15.238-4.478-4.404-2.778-8.182-6.406-11.31-10.86-3.127-4.428-5.655-9.558-7.607-15.387-1.952-5.805-3.378-11.885-4.255-18.24-1.95-14.463-2.15-27.8-.598-39.959 1.576-12.161 4.503-22.645 8.807-31.451 4.303-8.784 9.708-15.664 16.188-20.593C32.472 2.477 39.677 0 47.609 0c4.479 0 8.507.826 12.085 2.501 3.578 1.653 6.606 3.93 9.083 6.807 2.501 2.878 4.405 6.279 5.73 10.183 1.326 3.928 1.976 8.082 1.976 12.461l-17.739 4.103c.198-2.427.226-4.854.075-7.256-.15-2.377-.601-4.528-1.326-6.43-.726-1.927-1.802-3.404-3.228-4.479-1.402-1.076-3.252-1.577-5.479-1.477-6.256.502-11.511 2.903-15.765 7.257-4.251 4.353-7.581 10.058-9.983 17.089-2.401 7.031-3.927 15.088-4.603 24.196-.701 9.082-.6 18.565.276 28.423.4 5.104 1.2 9.833 2.427 14.237 1.224 4.404 2.701 8.258 4.478 11.585 1.752 3.327 3.727 6.005 5.93 8.057 2.201 2.051 4.529 3.277 6.956 3.652 5.003.801 9.081.1 12.259-2.051 3.179-2.151 5.681-5.154 7.531-9.007 1.877-3.853 3.079-8.232 3.68-13.112.575-4.904.775-9.632.575-14.237a84.6 84.6 0 00-5.279.15c-1.552.1-3.103.251-4.605.451-1.525.2-3.051.425-4.628.725-1.551.3-3.328.626-5.28 1.027L41.304 77.69c2.428.3 5.205.45 8.282.45s6.28-.1 9.608-.301c3.303-.174 6.681-.424 10.108-.724 3.428-.301 6.681-.676 9.809-1.177.8 9.283.65 18.341-.424 27.123-1.078 8.808-3.179 16.589-6.307 23.395-3.127 6.781-7.381 12.21-12.76 16.263-5.381 4.053-11.911 5.93-19.641 5.655" mask="url(#b)"/></g><path fill="#8ED0F9" d="M114.577 24.795l22.222-4.657.375 10.361c6.741-2.715 13.008-3.886 18.809-3.513 5.831.399 10.845 1.968 15.076 4.756a27.896 27.896 0 013.893 3.063l-14.133 14.617c-6.592-5.49-16.629-4.724-23.645-.099 1.225 37.24 5.621 72.147 11.221 98.711l-28.087-.915c.591-38.865-1.428-83.227-5.731-122.324"/><path fill="#275875" d="M120.381 126.54c-.021-2.699-.051-5.415-.093-8.143a1.85 1.85 0 011.376-.767l7.044-.495a1.86 1.86 0 011.972 1.675l.531 5.59a1.853 1.853 0 01-.753 1.675l-4.148 3.01a1.86 1.86 0 01-2.254.074l-3.675-2.619m-.169-12.355c-.12-6.091-.295-12.24-.526-18.409l1.322-2.022a3.093 3.093 0 014.202-.931l7.94 4.918a3.075 3.075 0 011.46 2.681l-.182 8.521a3.09 3.09 0 01-2.166 3.06l-9.076 2.833a3.104 3.104 0 01-2.974-.651m-2.299-51.794c-.321-4.636-.67-9.249-1.05-13.822a2.003 2.003 0 011.658.137l3.114 1.75a2.003 2.003 0 01.955 2.242l-1.591 8.405a1.993 1.993 0 01-2.887 1.393l-.199-.105"/><path fill="#F68E28" d="M131.773 1.596a5.935 5.935 0 00-5.923 5.946 5.942 5.942 0 003.881 5.56c.004 3.035.012 5.813.019 8.753a2.074 2.074 0 002.071 2.063 2.075 2.075 0 002.062-2.071l-.019-8.753a5.94 5.94 0 003.857-5.575 5.932 5.932 0 00-5.948-5.923zm-19.419 3.532a5.93 5.93 0 017.635 3.48 5.934 5.934 0 01-1.673 6.569l3.061 8.199a2.069 2.069 0 01-1.209 2.659 2.07 2.07 0 01-2.66-1.211l-3.064-8.2a5.942 5.942 0 01-5.574-3.859 5.933 5.933 0 013.484-7.637z"/><path fill="#8ED0F9" d="M131.772 1.597a5.933 5.933 0 00-5.922 5.945 5.94 5.94 0 003.881 5.56c.004 3.036.012 5.813.019 8.753a2.072 2.072 0 002.071 2.063 2.074 2.074 0 002.062-2.07l-.019-8.754a5.94 5.94 0 003.857-5.575 5.932 5.932 0 00-5.949-5.922zm-19.418 3.531a5.93 5.93 0 017.635 3.48 5.936 5.936 0 01-1.674 6.569c1.062 2.843 2.035 5.446 3.062 8.199a2.069 2.069 0 01-1.209 2.659 2.07 2.07 0 01-2.66-1.21l-3.064-8.201a5.934 5.934 0 01-2.09-11.496z"/><path fill="#FFF" d="M127.315 26.918c3.277 0 5.933 3.352 5.933 7.488 0 4.137-2.656 7.49-5.933 7.49-3.277 0-5.933-3.353-5.933-7.49 0-4.136 2.656-7.488 5.933-7.488"/><path fill="#060318" d="M127.315 33.022c1.656 0 2.998 1.41 2.998 3.15 0 1.739-1.342 3.149-2.998 3.149-1.656 0-2.998-1.41-2.998-3.149 0-1.74 1.342-3.15 2.998-3.15"/><path fill="#FFF9EB" d="M127.315 26.918c3.277 0 5.933 3.352 5.933 7.488 0 4.137-2.656 7.49-5.933 7.49-3.277 0-5.933-3.353-5.933-7.49 0-4.136 2.656-7.488 5.933-7.488"/><path fill="#060318" d="M127.315 33.022c1.656 0 2.998 1.41 2.998 3.149 0 1.74-1.342 3.15-2.998 3.15-1.656 0-2.998-1.41-2.998-3.15 0-1.739 1.342-3.149 2.998-3.149"/><path fill="#275875" d="M128.407 139.344l-.076-4.33a1.999 1.999 0 01.849-1.673l4.224-2.975a1.993 1.993 0 012.126-.106l3.115 1.749a2 2 0 01.955 2.241l-1.592 8.405a1.99 1.99 0 01-2.886 1.393l-5.649-2.978a1.999 1.999 0 01-1.066-1.726m-1.977-70.339l3.526 2.184c.396.246.659.69.648 1.19l-.081 3.784a1.369 1.369 0 01-.962 1.358l-4.029 1.258a1.37 1.37 0 01-1.49-.471l-2.208-2.861a1.375 1.375 0 01-.123-1.663l2.852-4.366a1.376 1.376 0 011.867-.413m1.34 16.191l3.598-1.153a.85.85 0 011.07.488l.891 2.258a.852.852 0 01-.086.87l-1.306 1.771a.855.855 0 01-1.099.235l-2.791-1.554a.851.851 0 01-.445-.527l-.389-1.339a.855.855 0 01.557-1.049"/></g></svg>